# xmcd
#
# Track frame offsets:
#	150
#	18016
#	35671
#	54128
#	73236
#	89193
#	102586
#	119346
#	139294
#	164591
#
# Disc length: 2422 seconds
#
# Revision: 2
# Processed by: cddbd v1.4PL0 Copyright (c) Steve Scherf et al.
# Submitted via: audiograbber 1.81.02
#
DISCID=9109740a
DTITLE=Bavarian Blues Brothers - Houseparty
DYEAR=2001
DGENRE=Blues
TTITLE0=Hold on, I'm coming
TTITLE1=Houseparty
TTITLE2=Gimme some lovin'
TTITLE3=Immer wieder
TTITLE4=Land of 1000 dances
TTITLE5=Soul Man (Unplugged)
TTITLE6=Total verrückt nach Ihr
TTITLE7=Baby, Du brauchst mi'
TTITLE8=Raya
TTITLE9=Brandner Sepp 
EXTD=
EXTT0=
EXTT1=
EXTT2=
EXTT3=
EXTT4=
EXTT5=
EXTT6=
EXTT7=
EXTT8=
EXTT9=
PLAYORDER=
